PathFileType	4	(X/Y/Z)	output.trc
DataRate	CameraRate	NumFrames	NumMarkers	Units	OrigDataRate	OrigDataStartFrame	OrigNumFrames
100	100	7	23	m	100	2815	3753
Frame#	Time	C7			T8			EL			EM			US			RS			AA			Fore_Clus_1			Fore_Clus_2			Fore_Clus_3			Fore_Clus_4			Hum_Clus_1			Hum_Clus_2			Hum_Clus_3			Hum_Clus_4			Thor_Clus_1			Thor_Clus_2			Thor_Clus_3			Thor_Clus_4			IJ			PX			GH			Thor_Clus_5		
		X1	Y1	Z1	X2	Y2	Z2	X3	Y3	Z3	X4	Y4	Z4	X5	Y5	Z5	X6	Y6	Z6	X7	Y7	Z7	X8	Y8	Z8	X9	Y9	Z9	X10	Y10	Z10	X11	Y11	Z11	X12	Y12	Z12	X13	Y13	Z13	X14	Y14	Z14	X15	Y15	Z15	X16	Y16	Z16	X17	Y17	Z17	X18	Y18	Z18	X19	Y19	Z19	X20	Y20	Z20	X21	Y21	Z21	X22	Y22	Z22	X23	Y23	Z23
2814	28.140000	-0.041441	1.563780	-0.082417	-0.053147	1.317183	-0.097782	-0.102211	1.524480	0.377896	-0.032335	1.496169	0.362013	-0.072178	1.819658	0.375508	-0.068383	1.807406	0.311264	-0.185898	1.501192	0.058585	-0.110344	1.771374	0.378650	-0.109774	1.824342	0.366115	-0.112346	1.817881	0.338803	-0.114864	1.760447	0.335044	-0.152795	1.568819	0.273423	-0.166332	1.510353	0.277745	-0.198340	1.502604	0.223164	-0.182937	1.556764	0.206670	0.120726	1.479506	0.056960	0.087955	1.437066	0.121899	0.085992	1.481376	0.084909	0.137181	1.433631	0.080842	0.051251	1.503917	0.027721	0.093840	1.329414	0.092572	-0.148181	1.498610	0.068215	0.080166	1.457149	0.111181
2815	28.150000	-0.041408	1.563753	-0.082369	-0.053112	1.317155	-0.097734	-0.102300	1.524433	0.377890	-0.032421	1.496125	0.362018	-0.072253	1.819596	0.375510	-0.068416	1.807338	0.311270	-0.185919	1.501169	0.058580	-0.110405	1.771326	0.378637	-0.109821	1.824297	0.366095	-0.112409	1.817852	0.338774	-0.114918	1.760382	0.335016	-0.152859	1.568860	0.273394	-0.166384	1.510349	0.277696	-0.198386	1.502608	0.223120	-0.182976	1.556764	0.206646	0.120767	1.479540	0.057112	0.087898	1.436987	0.122044	0.085957	1.481350	0.085008	0.137169	1.433613	0.080942	0.051242	1.503889	0.027805	0.093803	1.329386	0.092674	-0.148196	1.498622	0.068193	0.080144	1.457129	0.111280
2816	28.160000	-0.041380	1.563727	-0.082316	-0.053086	1.317130	-0.097683	-0.102400	1.524395	0.377886	-0.032516	1.496091	0.362028	-0.072348	1.819540	0.375530	-0.068465	1.807280	0.311293	-0.185943	1.501149	0.058582	-0.110526	1.771252	0.378629	-0.109913	1.824216	0.366092	-0.112490	1.817776	0.338771	-0.115004	1.760326	0.335032	-0.152935	1.568831	0.273391	-0.166466	1.510297	0.277692	-0.198454	1.502570	0.223108	-0.183051	1.556749	0.206640	0.120730	1.479499	0.057204	0.087827	1.436961	0.122131	0.085890	1.481319	0.085079	0.137132	1.433570	0.081064	0.051229	1.503862	0.027892	0.093762	1.329359	0.092778	-0.148214	1.498632	0.068173	0.080103	1.457110	0.111363
2817	28.170000	-0.041361	1.563699	-0.082261	-0.053067	1.317102	-0.097627	-0.102510	1.524367	0.377886	-0.032620	1.496069	0.362044	-0.072461	1.819487	0.375569	-0.068524	1.807227	0.311335	-0.185973	1.501127	0.058589	-0.110626	1.771228	0.378661	-0.109993	1.824191	0.366100	-0.112579	1.817759	0.338785	-0.115085	1.760274	0.335044	-0.152993	1.568825	0.273381	-0.166541	1.510304	0.277677	-0.198498	1.502575	0.223064	-0.183094	1.556746	0.206627	0.120685	1.479469	0.057306	0.087757	1.436939	0.122216	0.085805	1.481281	0.085167	0.137085	1.433535	0.081185	0.051209	1.503835	0.027979	0.093717	1.329331	0.092883	-0.148237	1.498641	0.068157	0.080055	1.457115	0.111456
2818	28.180000	-0.041348	1.563673	-0.082205	-0.053056	1.317076	-0.097569	-0.102632	1.524347	0.377889	-0.032734	1.496058	0.362064	-0.072593	1.819441	0.375626	-0.068598	1.807184	0.311395	-0.186007	1.501108	0.058601	-0.110758	1.771180	0.378692	-0.110086	1.824141	0.366127	-0.112696	1.817727	0.338825	-0.115171	1.760214	0.335094	-0.153084	1.568768	0.273381	-0.166658	1.510284	0.277677	-0.198578	1.502544	0.223053	-0.183175	1.556727	0.206617	0.120658	1.479447	0.057422	0.087682	1.436920	0.122329	0.085716	1.481225	0.085219	0.137042	1.433519	0.081292	0.051186	1.503808	0.028067	0.093667	1.329305	0.092988	-0.148264	1.498647	0.068144	0.080007	1.457088	0.111547
2819	28.190000	-0.041339	1.563651	-0.082146	-0.053054	1.317054	-0.097509	-0.102764	1.524337	0.377895	-0.032858	1.496057	0.362091	-0.072742	1.819400	0.375700	-0.068687	1.807150	0.311472	-0.186043	1.501096	0.058617	-0.110891	1.771167	0.378745	-0.110167	1.824136	0.366167	-0.112806	1.817715	0.338878	-0.115295	1.760205	0.335143	-0.153174	1.568782	0.273367	-0.166750	1.510279	0.277658	-0.198657	1.502548	0.223010	-0.183249	1.556737	0.206607	0.120604	1.479439	0.057539	0.087613	1.436920	0.122399	0.085743	1.481292	0.085410	0.136996	1.433496	0.081415	0.051158	1.503784	0.028155	0.093612	1.329281	0.093092	-0.148296	1.498652	0.068134	0.079931	1.457060	0.111645
2820	28.200000	-0.041336	1.563633	-0.082086	-0.053060	1.317036	-0.097448	-0.102906	1.524335	0.377904	-0.032991	1.496066	0.362122	-0.072906	1.819363	0.375789	-0.068788	1.807121	0.311563	-0.186084	1.501088	0.058637	-0.111049	1.771122	0.378801	-0.110289	1.824095	0.366210	-0.113052	1.817707	0.338992	-0.115420	1.760178	0.335191	-0.153311	1.568786	0.273362	-0.166860	1.510247	0.277645	-0.198741	1.502517	0.222999	-0.183351	1.556726	0.206593	0.120570	1.479424	0.057620	0.087573	1.436893	0.122559	0.085467	1.481086	0.085295	0.136947	1.433475	0.081537	0.051127	1.503763	0.028242	0.093552	1.329258	0.093195	-0.148333	1.498654	0.068127	0.079887	1.457067	0.111740
